<?xml version="1.0" standalone="no"?>
<!DOCTYPE svg PUBLIC "-//W3C//DTD SVG 20010904//EN"
 "http://www.w3.org/TR/2001/REC-SVG-20010904/DTD/svg10.dtd">
<svg version="1.0" xmlns="http://www.w3.org/2000/svg"
 width="640.000000pt" height="640.000000pt" viewBox="0 0 640.000000 640.000000"
 preserveAspectRatio="xMidYMid meet">
<metadata>
Created by potrace 1.11, written by Peter Selinger 2001-2013
</metadata>
<g transform="translate(0.000000,640.000000) scale(0.100000,-0.100000)"
fill="#000000" stroke="none">
<path d="M220 6380 c-98 -36 -176 -118 -204 -214 -15 -50 -16 -333 -14 -2988
l3 -2933 28 -56 c32 -66 98 -131 165 -162 l47 -22 2955 0 2955 0 57 29 c67 33
130 97 161 164 l22 47 0 2955 0 2955 -22 47 c-31 67 -96 133 -162 165 l-56 28
-2940 2 c-2902 2 -2941 2 -2995 -17z m5500 -1607 c59 -29 123 -93 152 -151
l23 -47 3 -1905 c2 -1730 1 -1910 -14 -1955 -31 -97 -118 -179 -214 -204 -34
-9 -656 -11 -2445 -9 l-2400 3 -45 22 c-59 29 -123 93 -152 151 l-23 47 -3
1905 c-3 2110 -7 1956 61 2047 36 47 107 97 158 111 22 7 883 10 2444 9 l2410
-2 45 -22z"/>
<path d="M4367 2485 c-190 -41 -375 -209 -436 -396 -67 -208 -16 -439 134
-597 112 -120 246 -180 412 -188 401 -17 700 353 602 744 -53 212 -235 391
-446 438 -54 12 -209 11 -266 -1z"/>
</g>
</svg>
