<?xml version="1.0" encoding="iso-8859-1"?>
<!-- Generator: Adobe Illustrator 18.0.0, SVG Export Plug-In . SVG Version: 6.00 Build 0)  -->
<!DOCTYPE svg PUBLIC "-//W3C//DTD SVG 1.1//EN" "http://www.w3.org/Graphics/SVG/1.1/DTD/svg11.dtd">
<svg version="1.1" id="Capa_1" xmlns="http://www.w3.org/2000/svg" xmlns:xlink="http://www.w3.org/1999/xlink" x="0px" y="0px"
	 viewBox="0 0 483.656 483.656" style="enable-background:new 0 0 483.656 483.656;" xml:space="preserve" stroke="#fff" fill="#fff">
<g>
	<path d="M173.062,92.822c-2.868,2.868-5.234,6.107-7.117,9.665c-1.271,2.402-22.561,55.043-22.561,55.043
		c-16.308,39.85-40.015,75.493-70.461,105.939l-14.875,14.875c-30.985,30.985-31.393,81.136-0.91,111.796
		c14.871,14.957,34.665,23.192,55.735,23.192c0.021,0,0.043,0,0.065,0c11.676,0,22.961-2.539,33.237-7.341l27.615,27.615
		c1.464,1.465,3.384,2.197,5.303,2.197c1.763,0,3.521-0.626,4.932-1.861l38.884,38.884c7.22,7.22,16.704,10.83,26.188,10.83
		c9.484,0,18.968-3.61,26.188-10.83c14.44-14.44,14.44-37.935,0-52.375l-38.866-38.866l5.254-5.254
		c1.407-1.406,2.197-3.314,2.197-5.303s-0.79-3.897-2.197-5.303l-21.867-21.867c21.578-16.055,45.081-29.328,70.271-39.637
		c0,0,52.504-21.121,56.655-23.442c4.351-2.432,8.057-6.231,8.057-6.231c28.427-26.493,9.089-88.913-41.862-139.864
		C261.975,83.732,200.539,65.344,173.062,92.822z M159.476,398.08c3.174-2.342,6.197-4.935,9.039-7.777l15.621-15.621
		c2.372-2.372,4.786-4.687,7.22-6.977l18.864,18.865l-31.127,31.127L159.476,398.08z M233.516,462.22l-38.866-38.866l14.772-14.772
		l38.869,38.87c4.161,4.161,6.452,9.693,6.452,15.578c0,0.017,0,0.034,0,0.051c-0.008,3.13-2.667,5.579-5.797,5.562
		C243.353,468.612,237.774,466.478,233.516,462.22z M264.678,431.058c6.711,6.711,8.155,16.702,4.381,24.852
		c-1.39-7.178-4.877-13.78-10.161-19.064l-38.87-38.87l5.784-5.784L264.678,431.058z M225.763,371.028l-4.936,4.936l-18.3-18.3
		c1.775-1.521,3.558-3.029,5.363-4.508L225.763,371.028z M284.394,290.338c-41.703,17.067-79.003,41.876-110.864,73.738
		l-15.621,15.621c-12.018,12.018-27.987,18.635-44.977,18.635c-0.018,0-0.036,0-0.053,0c-17.052,0-33.071-6.665-45.104-18.768
		c-24.668-24.811-24.274-65.46,0.879-90.613l14.875-14.875c31.862-31.862,56.67-69.162,73.737-110.864l5.902-14.421
		c6.597,26.437,24.522,56.664,51.755,83.896c23.677,23.677,50.77,41.268,76.291,49.533c2.59,0.839,5.136,1.571,7.638,2.201
		L284.394,290.338z M225.578,174.843c0.114,0.385,0.22,0.767,0.346,1.156c3.029,9.352,9.4,19.205,17.941,27.746
		c9.326,9.326,19.522,15.562,28.88,18.299l-21.893,21.893c-8.685-6.409-17.204-13.74-25.322-21.858
		c-8.119-8.119-15.452-16.639-21.861-25.327L225.578,174.843z M287.515,207.276L287.515,207.276l-0.001-0.001l-0.016,0.016
		c-3.789,3.736-18.864,0.01-33.027-14.152c-6.795-6.795-11.999-14.727-14.277-21.761c-1.681-5.192-1.627-9.515,0.141-11.283
		c0.909-0.909,2.492-1.365,4.523-1.365c1.919,0,4.237,0.408,6.76,1.225c7.034,2.278,14.965,7.482,21.761,14.277
		C287.56,188.413,291.278,203.512,287.515,207.276z M344.181,263.942c-1.73,1.73-2.546,2.479-5.479,4.098
		c-2.933,1.619-5.832,2.457-5.832,2.457c-9.679,2.964-22.5,2.159-37.034-2.548c-10.586-3.428-21.513-8.677-32.353-15.431
		l34.615-34.615c0.008-0.007,0.016-0.014,0.024-0.021c11.436-11.437,5.358-34.762-14.137-54.257
		c-8.541-8.541-18.394-14.912-27.746-17.941c-11.06-3.582-20.477-2.231-26.512,3.804l0,0l-0.004-0.004l-34.636,34.636
		c-6.752-10.839-11.999-21.764-15.427-32.348c-4.715-14.558-5.516-27.398-2.535-37.083c0,0,0.974-3.228,2.14-5.229
		c1.166-2.001,2.661-4.292,4.402-6.033c5.725-5.725,13.985-8.424,23.861-8.424c26.024,0,63.254,18.75,94.791,50.286
		C345.823,188.794,364.993,243.13,344.181,263.942z"/>
	<path d="M441.617,176.572h-68.6c-4.142,0-7.5,3.358-7.5,7.5s3.358,7.5,7.5,7.5h68.6c4.142,0,7.5-3.358,7.5-7.5
		S445.759,176.572,441.617,176.572z"/>
	<path d="M341.779,145.392c1.272,2.729,3.978,4.332,6.802,4.332c1.062,0,2.14-0.227,3.165-0.705l75.91-35.4
		c3.754-1.751,5.378-6.213,3.627-9.967s-6.213-5.377-9.967-3.627l-75.91,35.4C341.653,137.176,340.029,141.638,341.779,145.392z"/>
	<path d="M315.146,116.937c1.405,1.179,3.116,1.755,4.817,1.755c2.14,0,4.266-0.911,5.749-2.679l56.35-67.15
		c2.663-3.173,2.249-7.904-0.924-10.566c-3.174-2.663-7.905-2.249-10.566,0.924l-56.35,67.15
		C311.559,109.544,311.973,114.274,315.146,116.937z"/>
	<path d="M283.326,92.646c0.65,0.174,1.303,0.257,1.946,0.257c3.311,0,6.342-2.21,7.24-5.561l20.87-77.9
		c1.072-4.001-1.303-8.114-5.304-9.186c-3.998-1.072-8.113,1.302-9.186,5.304l-20.87,77.9
		C276.95,87.462,279.325,91.574,283.326,92.646z"/>
</g>
<g>
</g>
<g>
</g>
<g>
</g>
<g>
</g>
<g>
</g>
<g>
</g>
<g>
</g>
<g>
</g>
<g>
</g>
<g>
</g>
<g>
</g>
<g>
</g>
<g>
</g>
<g>
</g>
<g>
</g>
</svg>
